<svg xmlns="http://www.w3.org/2000/svg" viewBox="0 0 108.51 24.2"><defs><style>.cls-1,.cls-2{fill:#fcf6e3;}.cls-2{fill-rule:evenodd;}.cls-3,.cls-4,.cls-5{fill:none;stroke:#fcf6e3;stroke-linecap:round;stroke-miterlimit:10;stroke-width:0.5px;}.cls-4{stroke-dasharray:0.2 1 0.2 1;}.cls-5{stroke-dasharray:0.2 1 0.2 1 0.2 1;}</style></defs><title>barcelona-header</title><g id="Capa_2" data-name="Capa 2"><g id="Front_Banner" data-name="Front Banner"><path class="cls-1" d="M7.69,9.39c0,2-1.68,3-4.09,3H0V2.3H3.35c2.21,0,4,.89,4,2.87A2,2,0,0,1,6.06,7.09,2.4,2.4,0,0,1,7.69,9.39Zm-4.22-3a1.85,1.85,0,0,0,.77-.14.88.88,0,0,0,.49-.87c0-.74-.53-1.07-1.23-1.07H2.44V6.42Zm-1,3.92h1.3c.68,0,1.3-.34,1.3-1.12A1.11,1.11,0,0,0,4,8H2.44Z"/><path class="cls-1" d="M16.09,2.16h.12l5,10.22H18.55l-.69-1.54H14.45l-.7,1.54H11.07Zm1,7c-.35-.8-.76-1.79-1-2.41-.14.34-.69,1.77-1,2.41Z"/><path class="cls-1" d="M28.86,2.3c2.41,0,4.08,1.16,4.08,3.43a3,3,0,0,1-1.85,2.91l2,3.74H30.42L28.8,9.06H27.68v3.32H25.17V2.3ZM27.7,4.46V7H29a1.2,1.2,0,0,0,1.35-1,.82.82,0,0,0,0-.27,1.21,1.21,0,0,0-1.14-1.28H27.7Z"/><path class="cls-1" d="M45.19,5.11a5.65,5.65,0,0,0-2.67-.67,2.84,2.84,0,0,0-3,2.67v.23a2.78,2.78,0,0,0,2.65,2.9h.25a6.13,6.13,0,0,0,2.85-.67v2.37a7.13,7.13,0,0,1-3.08.64A5.24,5.24,0,0,1,42.3,2.1h0a6.09,6.09,0,0,1,2.9.67Z"/><path class="cls-1" d="M49.75,12.38V2.3h6.61V4.46h-4V6.25h3.46v2h-3.5v1.94h4.25v2.15Z"/><path class="cls-1" d="M61,12.38V2.3H63.6v7.93h3.64v2.15Z"/><path class="cls-1" d="M94.35,12.52,89.18,8l-.81-.67v5.08H85.86V2.16H86L91.1,6.7c.28.22.54.47.82.68V2.3h2.52V12.52Z"/><path class="cls-1" d="M103.39,2.16h.12l5,10.22h-2.65l-.71-1.54h-3.39l-.7,1.54H98.38Zm1,7c-.35-.8-.75-1.79-1-2.41-.14.34-.69,1.77-1,2.41Z"/><path class="cls-2" d="M68.63,7.44l7.44,7.44,7.44-7.44L76.07,0Zm14.16,0-6.72,6.72L69.35,7.44,76.07.72Z"/><path class="cls-2" d="M77.34,6.17h0a1.78,1.78,0,1,0-2.52,0h0a1.78,1.78,0,1,0,0,2.52h0a1.78,1.78,0,1,0,2.52,0h0a1.78,1.78,0,1,0,0-2.52ZM75.14,4a1.33,1.33,0,0,1,2,1.72L77,5.85H77a1.77,1.77,0,0,0-1.78,0h0a1.32,1.32,0,0,1,0-1.87Zm-.66,4.41a1.33,1.33,0,1,1,0-1.88h0v0a1.77,1.77,0,0,0,0,1.78ZM77,10.9A1.33,1.33,0,0,1,75.12,9V9A1.77,1.77,0,0,0,76.9,9V9A1.32,1.32,0,0,1,77,10.89ZM75.13,8.34a1.35,1.35,0,0,1,0-1.88,1.33,1.33,0,1,1,1.94,1.82L77,8.34A1.35,1.35,0,0,1,75.13,8.34Zm4.4,0a1.33,1.33,0,0,1-1.88,0h0a1.77,1.77,0,0,0,0-1.78h0a1.33,1.33,0,0,1,1.88,1.88Z"/><line class="cls-3" x1="32.25" y1="23.95" x2="32.35" y2="23.95"/><line class="cls-4" x1="33.35" y1="23.95" x2="35.25" y2="23.95"/><line class="cls-5" x1="35.74" y1="23.95" x2="71.15" y2="23.95"/><line class="cls-3" x1="71.65" y1="23.95" x2="71.75" y2="23.95"/><line class="cls-3" x1="32.26" y1="17.12" x2="32.36" y2="17.12"/><line class="cls-4" x1="33.35" y1="17.12" x2="35.25" y2="17.12"/><line class="cls-5" x1="35.75" y1="17.12" x2="71.15" y2="17.12"/><line class="cls-3" x1="71.65" y1="17.12" x2="71.75" y2="17.12"/><path class="cls-1" d="M34.41,22.18v-.74a2.39,2.39,0,0,0,.9.26.86.86,0,0,0,.32,0c.28,0,.44-.14.44-.32s-.22-.36-.71-.54-1-.5-1-1.12.53-1.06,1.3-1.06a2.36,2.36,0,0,1,.94.19v.67a1.8,1.8,0,0,0-.88-.22c-.37,0-.61.14-.61.37s.2.36.69.54,1,.51,1,1.12-.49,1-1.34,1A2.68,2.68,0,0,1,34.41,22.18Z"/><path class="cls-1" d="M39,19.36v3h-.77v-3h-1v-.65H40v.65Z"/><path class="cls-1" d="M41.94,18.71c.84,0,1.39.42,1.39,1.19a1.07,1.07,0,0,1-.68,1l.75,1.39h-.81L42,21h-.52v1.29h-.75V18.71Zm-.51.65v1.08H42a.51.51,0,0,0,.58-.43V19.9a.52.52,0,0,0-.52-.54h-.61Z"/><path class="cls-1" d="M44.17,22.32V18.71h2.31v.65H44.94v.82h1.31v.62H44.94v.87h1.62v.65Z"/><path class="cls-1" d="M47.33,22.32V18.71h2.32v.65H48.1v.82h1.31v.62H48.1v.87h1.62v.65Z"/><path class="cls-1" d="M51.93,19.36v3h-.77v-3h-1v-.65h2.78v.65Z"/><path class="cls-1" d="M55.49,19.36v.86h1.2v.64h-1.2v1.46h-.77V18.71h2.19v.65Z"/><path class="cls-1" d="M59.32,18.64a1.86,1.86,0,0,1,1.89,1.83v.05a1.89,1.89,0,1,1-1.9-1.88Zm0,3a1.17,1.17,0,0,0,1.23-1.11,1.19,1.19,0,0,0-1.11-1.23,1.17,1.17,0,0,0-1.23,1.11v.11a1.11,1.11,0,0,0,1.06,1.16h0Z"/><path class="cls-1" d="M63.76,18.64A1.88,1.88,0,0,1,64,22.39h-.27a1.88,1.88,0,0,1-.27-3.75A1.22,1.22,0,0,1,63.76,18.64Zm0,3A1.17,1.17,0,0,0,65,20.53a1.19,1.19,0,0,0-1.11-1.23,1.17,1.17,0,0,0-1.23,1.11v.11a1.11,1.11,0,0,0,1.06,1.16h0Z"/><path class="cls-1" d="M66.43,22.32V18.71h1.15a1.81,1.81,0,1,1,.27,3.61H66.43Zm.77-3v2.31h.38a1.16,1.16,0,0,0,.22-2.31.81.81,0,0,0-.22,0Z"/></g></g></svg>